<svg xmlns="http://www.w3.org/2000/svg" width="1000" height="501" viewBox="0 0 1000 501">
  <g id="Grupo_616" data-name="Grupo 616" transform="translate(-3969.401 -867)">
    <rect id="Rect치ngulo_3451" data-name="Rect치ngulo 3451" width="1000" height="501" transform="translate(3969.401 867)" fill="none"/>
    <g id="Grupo_612" data-name="Grupo 612" transform="translate(4054.485 952.485)">
      <rect id="Rect치ngulo_121" data-name="Rect치ngulo 121" width="832" height="331" transform="translate(-0.084 -0.485)" fill="#0451dd"/>
      <path id="Trazado_701" data-name="Trazado 701" d="M378.077,448h0l-1.541.616-4.314,2.467-3.082,2.772-3.082,3.082-4.006,4.006-4.623,4.931-64.72,80.435v48.077h0l.31,4.313.924,3.7.618,3.39.616,2.467,1.849,3.39.925.923H217.82l.616-.923,1.541-3.39.925-2.467.924-3.39.618-3.7V546.31l-64.1-79.818h0l-4.316-5.239-3.7-4.008-3.7-3.082-2.774-2.465-4.314-3.082L138,448h81.053l.924,1.541,1.233,3.7,3.7,7.088,2.157,4.006,3.082,4.623,27.121,41.6h.924l27.121-41.6h0l3.082-4.623,2.465-4.006,3.39-7.088,1.849-3.7.31-1.541Z" transform="translate(-70.236 -364.747)" fill="#fff" fill-rule="evenodd"/>
      <path id="Trazado_702" data-name="Trazado 702" d="M410.5,448H276l.931.924,1.243,3.39,1.243,2.467.621,3.39.931,3.7V594.387h0V598.7l-.931,4.006-.621,3.082-1.243,2.467-1.243,3.39-.931.923h80.761l-.62-.923-1.865-3.39-.621-2.467-.931-3.39-.621-3.7V554.323h58.4l6.834-.308,6.211-.618,6.834-1.231,5.9-1.233,5.9-1.849,4.97-2.157,5.282-3.082,4.349-3.082,4.349-3.7,3.727-4.006,2.8-4.316,3.107-4.931,1.863-4.929,1.553-5.549.933-5.855.31-6.165h0l-.31-6.47-.933-5.857-1.241-5.547-2.174-4.931-2.8-4.621-3.107-4.624-3.415-4.006-4.35-3.39-4.349-3.39-4.97-2.774-5.28-2.465-5.9-2.157-5.9-1.233-6.523-1.233L417.333,448Zm-36.033,76.738H352.1V478.509h22.676l5.9.31,5.591,1.231,4.97,1.233,2.484,1.233,2.174,1.541,1.864,1.231,1.553,1.541,1.553,1.849,1.243,2.157.931,2.159.933,2.465.31,3.082v2.772h0V504.4l-.31,2.467-.933,2.465-.931,2.157-1.243,2.159-1.553,2.157-1.553,1.541-1.864,1.541-2.174,1.539-2.484.925-2.486,1.233-2.484.616-5.591,1.233Z" transform="translate(58.946 -364.747)" fill="#fff" fill-rule="evenodd"/>
      <path id="Trazado_703" data-name="Trazado 703" d="M572.185,486.523h0l-1.241-.925-3.721-1.231-3.1-1.233-3.413-.616-3.721-.308-4.964-.31H472v39.448h69.171l4.033-.308,6.823-1.233,4.654-.616,1.239-.308v39.138h0l-1.239-.616-4.964-1.233-6.825-.925-4.031-.308-4.343-.616H472v40.372h0l.31,4.623.31,3.388.622,3.082,1.241,2.467,1.551,3.39.62.923H396l.62-.923,1.862-3.39,1.241-2.467.62-3.082.31-3.388.621-4.623V466.182h0l-.621-4.314-.31-4.006-.62-3.082-1.241-2.467-1.862-3.39L396,448H572.185Z" transform="translate(171.278 -364.747)" fill="#fff" fill-rule="evenodd"/>
    </g>
  </g>
</svg>
