<svg xmlns="http://www.w3.org/2000/svg" width="1000" height="397" viewBox="0 0 1000 397">
  <g id="Grupo_617" data-name="Grupo 617" transform="translate(-4006.264 -1170)">
    <rect id="Rectángulo_121" data-name="Rectángulo 121" width="1000" height="397" transform="translate(4006.264 1170)" fill="#0451dd" opacity="0"/>
    <g transform="translate(0, 20)"> 
    <path id="Trazado_701" data-name="Trazado 701" d="M426.719,448h0l-1.853.74-5.188,2.966-3.707,3.334-3.707,3.707-4.817,4.817-5.56,5.93-77.833,96.733v57.818h0l.373,5.188,1.111,4.447.743,4.077.74,2.966,2.224,4.077,1.113,1.111H233.992l.74-1.111,1.853-4.077,1.113-2.966,1.111-4.077.743-4.447V566.228l-77.09-95.99h0l-5.19-6.3-4.447-4.82-4.447-3.707-3.337-2.964-5.188-3.707L138,448h97.475l1.111,1.853,1.483,4.447,4.447,8.524,2.594,4.817,3.707,5.56,32.616,50.035h1.111L315.16,473.2h0l3.707-5.56,2.964-4.817,4.077-8.524,2.224-4.447L328.5,448Z" transform="translate(3949.493 822.12)" fill="#fff" fill-rule="evenodd"/>
    <path id="Trazado_702" data-name="Trazado 702" d="M437.75,448H276l1.12,1.111,1.495,4.077,1.495,2.966.747,4.077,1.12,4.447V624.047h0v5.188l-1.12,4.818-.747,3.707-1.495,2.966L277.12,644.8,276,645.913h97.124l-.745-1.111-2.242-4.077-.747-2.966-1.12-4.077-.747-4.447V575.866H437.75l8.219-.37,7.469-.743,8.219-1.481,7.1-1.483,7.1-2.224,5.977-2.594,6.352-3.707,5.23-3.707,5.229-4.447,4.482-4.817,3.362-5.19,3.737-5.93,2.24-5.928,1.867-6.673,1.122-7.041.372-7.414h0l-.372-7.781-1.122-7.043-1.493-6.671-2.615-5.93-3.362-5.558-3.737-5.56-4.107-4.817-5.232-4.077-5.23-4.077-5.977-3.337-6.35-2.964-7.1-2.594-7.1-1.483-7.844-1.483L445.97,448Zm-43.333,92.285h-26.9V484.691h27.27l7.1.373,6.724,1.481,5.977,1.483,2.987,1.483,2.615,1.853,2.242,1.481L424.3,494.7l1.867,2.224,1.495,2.594,1.12,2.6,1.122,2.964.373,3.707v3.334h0v3.707l-.373,2.966-1.122,2.964-1.12,2.594-1.495,2.6-1.867,2.594-1.867,1.853-2.242,1.853-2.615,1.851-2.987,1.113-2.99,1.483-2.987.74-6.724,1.483Z" transform="translate(4132.81 822.12)" fill="#fff" fill-rule="evenodd"/>
    <path id="Trazado_703" data-name="Trazado 703" d="M607.883,494.328h0l-1.492-1.113-4.475-1.481-3.73-1.483-4.1-.74-4.475-.37-5.97-.373H487.394v47.441H570.58l4.85-.37,8.205-1.483,5.6-.74,1.49-.37v47.068h0l-1.49-.74-5.97-1.483-8.208-1.113-4.848-.37-5.223-.74H487.394v48.551h0l.373,5.56.372,4.075.747,3.707,1.492,2.966,1.865,4.077.745,1.111H396l.745-1.111,2.24-4.077,1.492-2.966.745-3.707.373-4.075.747-5.56V469.866h0l-.747-5.188-.373-4.817-.745-3.707-1.492-2.966-2.24-4.077L396,448H607.883Z" transform="translate(4292.216 822.12)" fill="#fff" fill-rule="evenodd"/>
  </g>
  </g>
</svg>
